<svg width="24" height="31" viewBox="0 0 24 31" fill="none" xmlns="http://www.w3.org/2000/svg">
<path d="M10.38 16.125L12 14.895L13.605 16.11C14.19 16.545 14.985 15.99 14.775 15.285L14.145 13.245L15.945 11.82C16.5 11.4 16.185 10.5 15.465 10.5H13.365L12.72 8.49C12.6707 8.33995 12.5752 8.2093 12.4473 8.11668C12.3194 8.02405 12.1654 7.97419 12.0075 7.97419C11.8496 7.97419 11.6956 8.02405 11.5677 8.11668C11.4398 8.2093 11.3443 8.33995 11.295 8.49L10.635 10.5H8.52C7.815 10.5 7.5 11.4 8.055 11.835L9.84 13.26L9.21 15.3C9 16.005 9.795 16.56 10.38 16.125ZM3 29.415C3 30.435 4.005 31.155 4.98 30.84L12 28.5L19.02 30.84C19.246 30.917 19.4871 30.9389 19.7232 30.9038C19.9594 30.8687 20.1837 30.7776 20.3775 30.6381C20.5713 30.4986 20.7289 30.3149 20.8372 30.1021C20.9455 29.8893 21.0013 29.6537 21 29.415V19.92C22.9341 17.7353 24.0013 14.9179 24 12C24 5.37 18.63 0 12 0C5.37 0 0 5.37 0 12C0 15.045 1.14 17.805 3 19.92V29.415ZM12 3C16.965 3 21 7.035 21 12C21 16.965 16.965 21 12 21C7.035 21 3 16.965 3 12C3 7.035 7.035 3 12 3Z" fill="#FE8111"/>
</svg>
